<svg xmlns="http://www.w3.org/2000/svg" xmlns:xlink="http://www.w3.org/1999/xlink" viewBox="0 0 132.81 73.9"><defs><style>.cls-1{isolation:isolate;}.cls-2{fill:url(#linear-gradient);}.cls-3,.cls-8{mix-blend-mode:overlay;}.cls-4{fill:url(#linear-gradient-2);}.cls-5,.cls-9{mix-blend-mode:multiply;}.cls-5{fill:url(#linear-gradient-3);}.cls-6{fill:url(#linear-gradient-4);}.cls-7{fill:url(#linear-gradient-5);}.cls-8{fill:url(#linear-gradient-6);}.cls-9{fill:url(#linear-gradient-7);}</style><linearGradient id="linear-gradient" x1="63.3" y1="80.22" x2="14.89" y2="24.89" gradientUnits="userSpaceOnUse"><stop offset="0" stop-color="#0740a5"/><stop offset="0.49" stop-color="#00abe9"/><stop offset="1" stop-color="#2affb4"/></linearGradient><linearGradient id="linear-gradient-2" y1="36.95" x2="42.38" y2="36.95" gradientUnits="userSpaceOnUse"><stop offset="0" stop-color="#fff"/><stop offset="1" stop-color="#fff" stop-opacity="0"/></linearGradient><linearGradient id="linear-gradient-3" x1="38.33" y1="23.69" x2="51.62" y2="40.15" gradientUnits="userSpaceOnUse"><stop offset="0" stop-color="#0740a5"/><stop offset="1" stop-color="#fff"/></linearGradient><linearGradient id="linear-gradient-4" x1="119.65" y1="78.41" x2="28.31" y2="-12.92" gradientUnits="userSpaceOnUse"><stop offset="0" stop-color="#0740a5"/><stop offset="0.49" stop-color="#00abe9"/><stop offset="1" stop-color="#71ff6a"/></linearGradient><linearGradient id="linear-gradient-5" x1="102.19" y1="0.07" x2="60.7" y2="78.85" xlink:href="#linear-gradient"/><linearGradient id="linear-gradient-6" x1="84.63" y1="1.91" x2="65.15" y2="64.25" xlink:href="#linear-gradient-2"/><linearGradient id="linear-gradient-7" x1="93.15" y1="21.84" x2="105.37" y2="40.17" xlink:href="#linear-gradient-3"/></defs><g class="cls-1"><g id="Livello_2" data-name="Livello 2"><g id="OBJECTS"><path class="cls-2" d="M76.13,63.47h0l-1.34,3.74A10.1,10.1,0,0,1,65.3,73.9H53L49.27,63.46l-9.33-26L29.26,67.22a10.09,10.09,0,0,1-9.49,6.68H0L23.7,7.85A11.82,11.82,0,0,1,34.84,0H46.36a10,10,0,0,1,9.38,6.59L62.7,26Z"/><g class="cls-3"><path class="cls-4" d="M42.38,0H34.85A11.86,11.86,0,0,0,23.69,7.85L0,73.9H7.57L31.26,7.85A11.83,11.83,0,0,1,42.38,0Z"/></g><path class="cls-5" d="M76.13,63.48l-1.34,3.74A10.1,10.1,0,0,1,65.3,73.9H53L49.27,63.46l-9.33-26,6.33-17.66a7.54,7.54,0,0,1,14.2,0L62.7,26Z"/><path class="cls-6" d="M132.81,73.9H106L92.88,37.45l-9.34,26h0L82.2,67.22a10.1,10.1,0,0,1-9.5,6.68H52.94l3.74-10.44L70.11,26h0L76.63,7.85A11.85,11.85,0,0,1,87.78,0H99.3a10,10,0,0,1,9.37,6.59Z"/><path class="cls-7" d="M113.41,19.79a7.54,7.54,0,0,0-14.2,0L92.88,37.45l-9.34,26h0L82.2,67.22a10.1,10.1,0,0,1-9.49,6.68H52.94l3.74-10.44L70.11,26h0L76.63,7.85A11.85,11.85,0,0,1,87.78,0H99.3a10,10,0,0,1,9.38,6.59Z"/><path class="cls-8" d="M76.75,26h0L83.27,7.85A11.87,11.87,0,0,1,94.43,0H87.78A11.85,11.85,0,0,0,76.63,7.85L70.11,26h0L56.68,63.46,52.94,73.9h6.64l3.75-10.44Z"/><path class="cls-9" d="M132.81,73.9H106L92.88,37.45l6.33-17.66a7.54,7.54,0,0,1,14.19,0Z"/></g></g></g></svg>